<mxfile host="app.diagrams.net" modified="2023-06-09T01:35:09.594Z" agent="Mozilla/5.0 (Windows NT 10.0; Win64; x64) AppleWebKit/537.36 (KHTML, like Gecko) Chrome/113.0.0.0 Safari/537.36" etag="F7ytnD-fon6IfJ-E6ZOk" version="21.3.7" type="github">
  <diagram name="第 1 页" id="4GvFkAYdrhcjdii6UWmC">
    <mxGraphModel dx="1034" dy="438" grid="0" gridSize="10" guides="1" tooltips="1" connect="1" arrows="1" fold="1" page="1" pageScale="1" pageWidth="827" pageHeight="1169" math="0" shadow="0">
      <root>
        <mxCell id="0" />
        <mxCell id="1" parent="0" />
        <mxCell id="L0lC_fFb44tZITNsnpqv-3" value="" style="edgeStyle=orthogonalEdgeStyle;rounded=0;orthogonalLoop=1;jettySize=auto;html=1;" parent="1" source="L0lC_fFb44tZITNsnpqv-1" target="L0lC_fFb44tZITNsnpqv-2" edge="1">
          <mxGeometry relative="1" as="geometry" />
        </mxCell>
        <mxCell id="L0lC_fFb44tZITNsnpqv-33" value="" style="edgeStyle=orthogonalEdgeStyle;rounded=0;orthogonalLoop=1;jettySize=auto;html=1;" parent="1" source="L0lC_fFb44tZITNsnpqv-1" target="L0lC_fFb44tZITNsnpqv-2" edge="1">
          <mxGeometry relative="1" as="geometry" />
        </mxCell>
        <mxCell id="L0lC_fFb44tZITNsnpqv-1" value="set newExp flag&lt;br&gt;set node member&lt;br&gt;insertNodeTableMap" style="rounded=1;whiteSpace=wrap;html=1;" parent="1" vertex="1">
          <mxGeometry x="261.25" y="100" width="122.5" height="60" as="geometry" />
        </mxCell>
        <mxCell id="L0lC_fFb44tZITNsnpqv-5" value="" style="edgeStyle=orthogonalEdgeStyle;rounded=0;orthogonalLoop=1;jettySize=auto;html=1;" parent="1" source="L0lC_fFb44tZITNsnpqv-2" target="L0lC_fFb44tZITNsnpqv-4" edge="1">
          <mxGeometry relative="1" as="geometry" />
        </mxCell>
        <mxCell id="L0lC_fFb44tZITNsnpqv-13" value="" style="edgeStyle=orthogonalEdgeStyle;rounded=0;orthogonalLoop=1;jettySize=auto;html=1;" parent="1" source="L0lC_fFb44tZITNsnpqv-2" target="L0lC_fFb44tZITNsnpqv-11" edge="1">
          <mxGeometry relative="1" as="geometry" />
        </mxCell>
        <mxCell id="L0lC_fFb44tZITNsnpqv-50" value="" style="edgeStyle=orthogonalEdgeStyle;rounded=0;orthogonalLoop=1;jettySize=auto;html=1;" parent="1" source="L0lC_fFb44tZITNsnpqv-2" target="L0lC_fFb44tZITNsnpqv-49" edge="1">
          <mxGeometry relative="1" as="geometry">
            <Array as="points">
              <mxPoint x="323" y="310" />
              <mxPoint x="161" y="310" />
            </Array>
          </mxGeometry>
        </mxCell>
        <mxCell id="L0lC_fFb44tZITNsnpqv-2" value="parent_id == 0" style="rhombus;whiteSpace=wrap;html=1;rounded=1;" parent="1" vertex="1">
          <mxGeometry x="257.5" y="190" width="130" height="110" as="geometry" />
        </mxCell>
        <mxCell id="L0lC_fFb44tZITNsnpqv-4" value="&lt;font style=&quot;font-size: 12px;&quot;&gt;root_node = node_1&lt;br&gt;new exp&lt;br&gt;SetExpFirstNode&lt;br&gt;&lt;/font&gt;&lt;div style=&quot;line-height: 19px;&quot;&gt;&lt;span style=&quot;background-color: rgb(255, 255, 255);&quot;&gt;&lt;font style=&quot;font-size: 12px;&quot;&gt;SetScenario&lt;/font&gt;&lt;/span&gt;&lt;/div&gt;&lt;div style=&quot;line-height: 19px;&quot;&gt;&lt;span style=&quot;background-color: rgb(255, 255, 255);&quot;&gt;&lt;font style=&quot;font-size: 12px;&quot;&gt;InsertExpMap&lt;/font&gt;&lt;/span&gt;&lt;/div&gt;" style="whiteSpace=wrap;html=1;rounded=1;" parent="1" vertex="1">
          <mxGeometry x="460" y="206.25" width="150" height="77.5" as="geometry" />
        </mxCell>
        <mxCell id="L0lC_fFb44tZITNsnpqv-8" value="y" style="text;strokeColor=none;fillColor=none;align=left;verticalAlign=middle;spacingLeft=4;spacingRight=4;overflow=hidden;points=[[0,0.5],[1,0.5]];portConstraint=eastwest;rotatable=0;whiteSpace=wrap;html=1;" parent="1" vertex="1">
          <mxGeometry x="387.5" y="212.5" width="80" height="30" as="geometry" />
        </mxCell>
        <mxCell id="L0lC_fFb44tZITNsnpqv-9" value="N" style="text;html=1;align=center;verticalAlign=middle;resizable=0;points=[];autosize=1;strokeColor=none;fillColor=none;" parent="1" vertex="1">
          <mxGeometry x="330" y="290" width="30" height="30" as="geometry" />
        </mxCell>
        <mxCell id="L0lC_fFb44tZITNsnpqv-10" value="node vector" style="text;strokeColor=none;fillColor=none;align=left;verticalAlign=middle;spacingLeft=4;spacingRight=4;overflow=hidden;points=[[0,0.5],[1,0.5]];portConstraint=eastwest;rotatable=0;whiteSpace=wrap;html=1;" parent="1" vertex="1">
          <mxGeometry x="250" y="60" width="80" height="30" as="geometry" />
        </mxCell>
        <mxCell id="L0lC_fFb44tZITNsnpqv-17" value="" style="edgeStyle=orthogonalEdgeStyle;rounded=0;orthogonalLoop=1;jettySize=auto;html=1;" parent="1" source="L0lC_fFb44tZITNsnpqv-11" target="L0lC_fFb44tZITNsnpqv-16" edge="1">
          <mxGeometry relative="1" as="geometry" />
        </mxCell>
        <mxCell id="L0lC_fFb44tZITNsnpqv-19" value="" style="edgeStyle=orthogonalEdgeStyle;rounded=0;orthogonalLoop=1;jettySize=auto;html=1;" parent="1" source="L0lC_fFb44tZITNsnpqv-11" target="L0lC_fFb44tZITNsnpqv-18" edge="1">
          <mxGeometry relative="1" as="geometry" />
        </mxCell>
        <mxCell id="L0lC_fFb44tZITNsnpqv-11" value="parent-&amp;gt;first_child == null" style="rhombus;whiteSpace=wrap;html=1;rounded=1;" parent="1" vertex="1">
          <mxGeometry x="240" y="330" width="165" height="110" as="geometry" />
        </mxCell>
        <mxCell id="L0lC_fFb44tZITNsnpqv-16" value="update parent-&amp;gt;child&lt;br&gt;node-&amp;gt;parent&lt;br&gt;node-&amp;gt;prev&lt;br&gt;node-prev-&amp;gt;next" style="whiteSpace=wrap;html=1;rounded=1;" parent="1" vertex="1">
          <mxGeometry x="460" y="355" width="120" height="60" as="geometry" />
        </mxCell>
        <mxCell id="L0lC_fFb44tZITNsnpqv-21" value="" style="edgeStyle=orthogonalEdgeStyle;rounded=0;orthogonalLoop=1;jettySize=auto;html=1;" parent="1" source="L0lC_fFb44tZITNsnpqv-18" target="L0lC_fFb44tZITNsnpqv-20" edge="1">
          <mxGeometry relative="1" as="geometry" />
        </mxCell>
        <mxCell id="L0lC_fFb44tZITNsnpqv-23" value="" style="edgeStyle=orthogonalEdgeStyle;rounded=0;orthogonalLoop=1;jettySize=auto;html=1;" parent="1" source="L0lC_fFb44tZITNsnpqv-18" target="L0lC_fFb44tZITNsnpqv-22" edge="1">
          <mxGeometry relative="1" as="geometry" />
        </mxCell>
        <mxCell id="L0lC_fFb44tZITNsnpqv-18" value="parent-&amp;gt;first_child ==&lt;br&gt;parent-&amp;gt;last_child" style="rhombus;whiteSpace=wrap;html=1;rounded=1;" parent="1" vertex="1">
          <mxGeometry x="226.25" y="475" width="192.5" height="110" as="geometry" />
        </mxCell>
        <mxCell id="L0lC_fFb44tZITNsnpqv-20" value="update parent-&amp;gt;last_child&lt;br style=&quot;border-color: var(--border-color);&quot;&gt;node-&amp;gt;parent&lt;br style=&quot;border-color: var(--border-color);&quot;&gt;node-&amp;gt;prev&lt;br style=&quot;border-color: var(--border-color);&quot;&gt;node-prev-&amp;gt;next&lt;br&gt;update patent row span" style="whiteSpace=wrap;html=1;rounded=1;" parent="1" vertex="1">
          <mxGeometry x="460" y="495" width="165" height="70" as="geometry" />
        </mxCell>
        <mxCell id="L0lC_fFb44tZITNsnpqv-22" value="update parent-&amp;gt;last_child&lt;br style=&quot;border-color: var(--border-color);&quot;&gt;node-&amp;gt;parent&lt;br style=&quot;border-color: var(--border-color);&quot;&gt;node-&amp;gt;prev&lt;br style=&quot;border-color: var(--border-color);&quot;&gt;node-prev-&amp;gt;next&lt;br style=&quot;border-color: var(--border-color);&quot;&gt;update patent row span" style="whiteSpace=wrap;html=1;rounded=1;" parent="1" vertex="1">
          <mxGeometry x="233.75" y="630" width="177.5" height="80" as="geometry" />
        </mxCell>
        <mxCell id="L0lC_fFb44tZITNsnpqv-27" value="gtree parse result" style="rounded=1;whiteSpace=wrap;html=1;" parent="1" vertex="1">
          <mxGeometry x="262.5" width="120" height="60" as="geometry" />
        </mxCell>
        <mxCell id="L0lC_fFb44tZITNsnpqv-32" value="" style="endArrow=classic;html=1;rounded=0;exitX=0.5;exitY=1;exitDx=0;exitDy=0;entryX=0.5;entryY=0;entryDx=0;entryDy=0;" parent="1" source="L0lC_fFb44tZITNsnpqv-27" target="L0lC_fFb44tZITNsnpqv-1" edge="1">
          <mxGeometry width="50" height="50" relative="1" as="geometry">
            <mxPoint x="380" y="110" as="sourcePoint" />
            <mxPoint x="430" y="60" as="targetPoint" />
          </mxGeometry>
        </mxCell>
        <mxCell id="L0lC_fFb44tZITNsnpqv-35" value="y" style="text;strokeColor=none;fillColor=none;align=left;verticalAlign=middle;spacingLeft=4;spacingRight=4;overflow=hidden;points=[[0,0.5],[1,0.5]];portConstraint=eastwest;rotatable=0;whiteSpace=wrap;html=1;" parent="1" vertex="1">
          <mxGeometry x="397.5" y="355" width="80" height="30" as="geometry" />
        </mxCell>
        <mxCell id="L0lC_fFb44tZITNsnpqv-36" value="y" style="text;strokeColor=none;fillColor=none;align=left;verticalAlign=middle;spacingLeft=4;spacingRight=4;overflow=hidden;points=[[0,0.5],[1,0.5]];portConstraint=eastwest;rotatable=0;whiteSpace=wrap;html=1;" parent="1" vertex="1">
          <mxGeometry x="411.25" y="495" width="80" height="30" as="geometry" />
        </mxCell>
        <mxCell id="L0lC_fFb44tZITNsnpqv-37" value="N" style="text;html=1;align=center;verticalAlign=middle;resizable=0;points=[];autosize=1;strokeColor=none;fillColor=none;" parent="1" vertex="1">
          <mxGeometry x="330" y="440" width="30" height="30" as="geometry" />
        </mxCell>
        <mxCell id="L0lC_fFb44tZITNsnpqv-38" value="N" style="text;html=1;align=center;verticalAlign=middle;resizable=0;points=[];autosize=1;strokeColor=none;fillColor=none;" parent="1" vertex="1">
          <mxGeometry x="330" y="580" width="30" height="30" as="geometry" />
        </mxCell>
        <mxCell id="L0lC_fFb44tZITNsnpqv-46" value="update exp last node&lt;br style=&quot;border-color: var(--border-color);&quot;&gt;new another exp&lt;br&gt;Set exp member" style="whiteSpace=wrap;html=1;rounded=1;" parent="1" vertex="1">
          <mxGeometry x="454" y="735" width="120" height="60" as="geometry" />
        </mxCell>
        <mxCell id="L0lC_fFb44tZITNsnpqv-51" value="" style="edgeStyle=orthogonalEdgeStyle;rounded=0;orthogonalLoop=1;jettySize=auto;html=1;" parent="1" source="L0lC_fFb44tZITNsnpqv-49" target="L0lC_fFb44tZITNsnpqv-46" edge="1">
          <mxGeometry relative="1" as="geometry" />
        </mxCell>
        <mxCell id="L0lC_fFb44tZITNsnpqv-54" value="" style="edgeStyle=orthogonalEdgeStyle;rounded=0;orthogonalLoop=1;jettySize=auto;html=1;" parent="1" source="L0lC_fFb44tZITNsnpqv-49" target="L0lC_fFb44tZITNsnpqv-53" edge="1">
          <mxGeometry relative="1" as="geometry" />
        </mxCell>
        <mxCell id="L0lC_fFb44tZITNsnpqv-49" value="new exp" style="rhombus;whiteSpace=wrap;html=1;rounded=1;" parent="1" vertex="1">
          <mxGeometry x="256.25" y="715" width="122.5" height="100" as="geometry" />
        </mxCell>
        <mxCell id="L0lC_fFb44tZITNsnpqv-52" value="y" style="text;strokeColor=none;fillColor=none;align=left;verticalAlign=middle;spacingLeft=4;spacingRight=4;overflow=hidden;points=[[0,0.5],[1,0.5]];portConstraint=eastwest;rotatable=0;whiteSpace=wrap;html=1;" parent="1" vertex="1">
          <mxGeometry x="378.75" y="735" width="80" height="30" as="geometry" />
        </mxCell>
        <mxCell id="L0lC_fFb44tZITNsnpqv-53" value="if(vector last node)&lt;br&gt;update exp last node" style="whiteSpace=wrap;html=1;rounded=1;" parent="1" vertex="1">
          <mxGeometry x="258.75" y="849" width="120" height="60" as="geometry" />
        </mxCell>
        <mxCell id="L0lC_fFb44tZITNsnpqv-55" value="N" style="text;html=1;align=center;verticalAlign=middle;resizable=0;points=[];autosize=1;strokeColor=none;fillColor=none;" parent="1" vertex="1">
          <mxGeometry x="322" y="809" width="30" height="30" as="geometry" />
        </mxCell>
      </root>
    </mxGraphModel>
  </diagram>
</mxfile>
